<?xml version="1.0" standalone="no"?>
<!DOCTYPE svg PUBLIC "-//W3C//DTD SVG 20010904//EN"
 "http://www.w3.org/TR/2001/REC-SVG-20010904/DTD/svg10.dtd">
<svg version="1.0" xmlns="http://www.w3.org/2000/svg"
 width="19.000000pt" height="25.000000pt" viewBox="0 0 19.000000 25.000000"
 preserveAspectRatio="xMidYMid meet">

<g transform="translate(0.000000,25.000000) scale(0.100000,-0.100000)"
fill="#000000" stroke="none">
<path d="M31 234 c-20 -14 -23 -23 -18 -60 6 -53 59 -139 98 -159 34 -18 40
-18 63 -2 18 13 18 15 1 40 -13 20 -23 25 -40 21 -19 -5 -28 2 -49 32 -25 37
-36 81 -17 69 18 -11 22 15 6 45 -8 16 -17 30 -18 30 -1 0 -13 -7 -26 -16z"/>
</g>
</svg>
