<?xml version="1.0" standalone="no"?>
<!DOCTYPE svg PUBLIC "-//W3C//DTD SVG 20010904//EN"
 "http://www.w3.org/TR/2001/REC-SVG-20010904/DTD/svg10.dtd">
<svg version="1.0" xmlns="http://www.w3.org/2000/svg"
 width="27.000000pt" height="19.000000pt" viewBox="0 0 27.000000 19.000000"
 preserveAspectRatio="xMidYMid meet">

<g transform="translate(0.000000,19.000000) scale(0.100000,-0.100000)"
fill="#000000" stroke="none">
<path d="M13 173 c-9 -3 -13 -30 -13 -83 0 -62 3 -79 16 -84 20 -8 218 -8 238
0 23 9 23 159 0 168 -19 7 -223 7 -241 -1z m122 -93 c4 0 32 21 63 46 32 25
40 30 19 11 l-38 -35 35 -40 c20 -22 36 -42 36 -45 0 -4 -18 13 -39 36 -34 37
-41 40 -56 27 -14 -11 -20 -12 -38 -1 -19 12 -24 10 -59 -27 -21 -23 -38 -39
-38 -35 0 3 16 23 36 45 l35 40 -38 35 c-21 19 -13 14 19 -11 31 -25 59 -46
63 -46z"/>
</g>
</svg>
