<?xml version="1.0" standalone="no"?>
<!DOCTYPE svg PUBLIC "-//W3C//DTD SVG 20010904//EN"
 "http://www.w3.org/TR/2001/REC-SVG-20010904/DTD/svg10.dtd">
<svg version="1.0" xmlns="http://www.w3.org/2000/svg"
 width="24.000000pt" height="24.000000pt" viewBox="0 0 24.000000 24.000000"
 preserveAspectRatio="xMidYMid meet">

<g transform="translate(0.000000,24.000000) scale(0.100000,-0.100000)"
fill="#000000" stroke="none">
<path d="M63 220 c-34 -21 -63 -66 -63 -100 0 -54 65 -120 118 -120 57 0 122
64 122 120 0 56 -65 120 -122 120 -13 0 -37 -9 -55 -20z m42 -50 c4 -14 15
-20 36 -20 41 0 39 -28 -3 -32 -41 -4 -42 -21 -2 -28 38 -7 39 -34 1 -38 -44
-5 -67 22 -67 78 0 26 3 50 7 53 12 12 22 7 28 -13z"/>
</g>
</svg>
