<?xml version="1.0" standalone="no"?>
<!DOCTYPE svg PUBLIC "-//W3C//DTD SVG 20010904//EN"
 "http://www.w3.org/TR/2001/REC-SVG-20010904/DTD/svg10.dtd">
<svg version="1.0" xmlns="http://www.w3.org/2000/svg"
 width="24.000000pt" height="24.000000pt" viewBox="0 0 24.000000 24.000000"
 preserveAspectRatio="xMidYMid meet">

<g transform="translate(0.000000,24.000000) scale(0.100000,-0.100000)"
fill="#000000" stroke="none">
<path d="M63 220 c-34 -21 -63 -66 -63 -100 0 -54 65 -120 118 -120 57 0 122
64 122 120 0 56 -65 120 -122 120 -13 0 -37 -9 -55 -20z m117 -100 c0 -54 -2
-60 -24 -66 -13 -3 -38 -4 -57 -2 l-34 3 -3 63 -3 62 61 0 60 0 0 -60z"/>
<path d="M150 160 c0 -5 5 -10 10 -10 6 0 10 5 10 10 0 6 -4 10 -10 10 -5 0
-10 -4 -10 -10z"/>
<path d="M100 121 c0 -15 6 -21 21 -21 25 0 22 33 -4 38 -12 2 -17 -3 -17 -17z"/>
<path d="M70 100 c0 -29 1 -30 50 -30 49 0 50 1 50 30 0 17 -4 30 -10 30 -5 0
-10 -9 -10 -19 0 -21 -22 -33 -45 -25 -14 6 -19 18 -16 37 0 4 -3 7 -9 7 -5 0
-10 -13 -10 -30z"/>
</g>
</svg>
