<?xml version="1.0" standalone="no"?>
<!DOCTYPE svg PUBLIC "-//W3C//DTD SVG 20010904//EN"
 "http://www.w3.org/TR/2001/REC-SVG-20010904/DTD/svg10.dtd">
<svg version="1.0" xmlns="http://www.w3.org/2000/svg"
 width="24.000000pt" height="24.000000pt" viewBox="0 0 24.000000 24.000000"
 preserveAspectRatio="xMidYMid meet">

<g transform="translate(0.000000,24.000000) scale(0.100000,-0.100000)"
fill="#000000" stroke="none">
<path d="M63 220 c-34 -21 -63 -66 -63 -100 0 -54 65 -120 118 -120 57 0 122
64 122 120 0 56 -65 120 -122 120 -13 0 -37 -9 -55 -20z m67 -58 c0 -10 -5
-23 -12 -30 -9 -9 -9 -15 0 -24 32 -32 -6 -71 -48 -48 -25 14 -25 26 0 40 18
10 19 13 5 26 -18 19 -19 26 -3 42 19 19 58 15 58 -6z m50 -42 c-4 -3 -9 -10
-11 -15 -2 -6 -11 -3 -21 7 -15 15 -15 18 -3 18 8 0 15 5 15 10 0 6 6 5 14 -2
8 -7 10 -15 6 -18z"/>
<path d="M85 160 c-7 -12 2 -30 16 -30 12 0 12 27 0 35 -5 3 -12 1 -16 -5z"/>
<path d="M77 94 c-11 -11 3 -24 24 -24 12 0 19 5 17 13 -5 14 -31 21 -41 11z"/>
</g>
</svg>
